<?xml version="1.0" encoding="UTF-8" standalone="no"?>
<!-- Created with Inkscape (http://www.inkscape.org/) -->

<svg
   xmlns:dc="http://purl.org/dc/elements/1.1/"
   xmlns:cc="http://creativecommons.org/ns#"
   xmlns:rdf="http://www.w3.org/1999/02/22-rdf-syntax-ns#"
   xmlns:svg="http://www.w3.org/2000/svg"
   xmlns="http://www.w3.org/2000/svg"
   xmlns:sodipodi="http://sodipodi.sourceforge.net/DTD/sodipodi-0.dtd"
   xmlns:inkscape="http://www.inkscape.org/namespaces/inkscape"
   id="svg2985"
   version="1.1"
   inkscape:version="0.48.2 r9819"
   width="1000"
   height="332.09488"
   xml:space="preserve"
   sodipodi:docname="Twitch logo with Icon.svg"><metadata
     id="metadata2991"><rdf:RDF><cc:Work
         rdf:about=""><dc:format>image/svg+xml</dc:format><dc:type
           rdf:resource="http://purl.org/dc/dcmitype/StillImage" /><dc:title></dc:title></cc:Work></rdf:RDF></metadata><defs
     id="defs2989" /><sodipodi:namedview
     pagecolor="#ffffff"
     bordercolor="#666666"
     borderopacity="1"
     objecttolerance="10"
     gridtolerance="10"
     guidetolerance="10"
     inkscape:pageopacity="0"
     inkscape:pageshadow="2"
     inkscape:window-width="1234"
     inkscape:window-height="1038"
     id="namedview2987"
     showgrid="false"
     fit-margin-left="0.5"
     fit-margin-bottom="0.5"
     fit-margin-top="0.5"
     fit-margin-right="0.5"
     inkscape:zoom="0.33712566"
     inkscape:cx="688.62015"
     inkscape:cy="176.64414"
     inkscape:window-x="675"
     inkscape:window-y="-21"
     inkscape:window-maximized="0"
     inkscape:current-layer="g2993" /><g
     id="g2993"
     inkscape:groupmode="layer"
     inkscape:label="Twitch_IntegrationGuidelines"
     transform="matrix(1.25,0,0,-1.25,-168.75089,945.68778)"><g
       id="g3001"
       transform="matrix(2.3423349,0,0,2.3423349,916.34688,664.8179)"><path
         d="m 0,0 -13.646,13.645 -25.35,0 0,17.55 -21.451,0 0,-79.94 21.451,0 0,40.947 17.545,0 0,-40.947 21.451,0 L 0,0 z m -68.241,13.645 -33.146,0 L -115.036,0 l 0,-35.094 13.649,-13.651 33.146,0 0,21.445 -25.35,0 0,19.502 25.35,0 0,21.443 z m -54.594,0 -17.545,0 0,17.55 -21.451,0 0,-66.289 13.649,-13.651 25.347,0 0,21.445 -17.545,0 0,19.502 17.545,0 0,21.443 z m -46.795,17.55 -21.445,0 0,-9.752 21.445,0 0,9.752 z m 0,-17.55 -21.445,0 0,-62.389 21.445,0 0,62.389 z m -29.244,0 -21.447,0 0,-40.945 -7.797,0 0,40.945 -21.448,0 0,-40.945 -7.796,0 0,40.945 -21.451,0 0,-62.39 66.293,0 13.646,13.651 0,48.739 z m -87.738,0 -17.546,0 0,17.55 -21.447,0 0,-66.289 13.648,-13.651 25.345,0 0,21.445 -17.546,0 0,19.502 17.546,0 0,21.443 z M 7.793,3.9 l 0,-58.491 -29.244,-19.499 -19.496,0 0,9.752 -13.648,-9.752 -17.545,0 0,9.752 -9.746,-9.752 -31.197,0 -9.752,9.752 -1.952,-9.752 -27.292,0 -11.161,9.752 -0.625,-9.752 -30.935,0 -1.094,9.752 -8.374,-9.752 -47.25,0 -9.75,3.9 0,-3.9 -25.344,0 -29.247,17.552 -17.546,17.539 0,77.991 37.047,0 17.545,-17.549 79.939,0 0,17.549 66.29,0 0,-17.549 17.548,0 0,-9.746 9.752,9.746 19.493,0 17.55,17.549 37.044,0 0,-17.549 21.448,0 L 7.793,3.9 z"
         style="fill:#6441a5;fill-opacity:1;fill-rule:evenodd;stroke:none"
         id="path3003"
         inkscape:connector-curvature="0" /></g></g></svg>